<svg width="21" height="12" viewBox="0 0 21 12" fill="none" xmlns="http://www.w3.org/2000/svg">
<path fill-rule="evenodd" clip-rule="evenodd" d="M13.8425 0.146819C14.0828 -0.0934384 14.567 0.00119973 14.7126 0.146811L19.9373 5.31868C19.96 5.34136 19.9814 5.37224 20.0005 5.40914C20.1812 5.51633 20.3022 5.71331 20.3022 5.93857C20.3022 6.16126 20.1839 6.35632 20.0067 6.46431C19.9811 6.53417 19.9478 6.59193 19.9113 6.62842L14.7394 11.8531C14.5938 11.9987 14.1096 12.0934 13.8694 11.8532C13.6291 11.6129 13.7237 11.1287 13.8694 10.983L18.2538 6.55379H0.615219C0.275443 6.55379 0 6.27835 0 5.93857C0 5.59879 0.275443 5.32335 0.615219 5.32335H18.193L13.8426 1.01686C13.697 0.87125 13.6023 0.387077 13.8425 0.146819Z" fill="#FF6600"/>
</svg>
