<svg width="66" height="68" viewBox="0 0 66 68" fill="none" xmlns="http://www.w3.org/2000/svg">
<g filter="url(#filter0_d)">
<path d="M42.6659 32.7598L42.6145 32.7199C41.6275 31.955 40.1465 32.15 39.3109 33.2283L38.1527 34.7228C37.922 35.0205 37.4929 35.0748 37.1952 34.8441C36.8972 34.6132 36.8432 34.1844 37.0739 33.8867L39.2126 31.127C40.0482 30.0488 39.945 28.5649 38.9583 27.8002C37.9662 27.0314 36.5035 27.3017 35.6679 28.38L33.4011 31.3049C33.1702 31.6028 32.7414 31.6569 32.4437 31.4262C32.1457 31.1953 32.0914 30.7668 32.3223 30.4688L35.2115 26.7408C36.0468 25.6629 35.8929 24.1805 34.9062 23.4158L34.8514 23.3734C33.8894 22.6278 32.4592 22.8121 31.6527 23.8527L28.3994 28.0506C28.1685 28.3486 27.7397 28.4026 27.442 28.1719C27.144 27.941 27.0897 27.5125 27.3206 27.2145L30.4797 23.1382C30.4899 23.125 30.4992 23.11 30.5097 23.0964C30.5353 23.0633 30.5625 23.0314 30.5879 22.9986L37.9738 13.4683C38.8094 12.3901 38.6753 10.8827 37.6889 10.1183C36.7022 9.35359 35.2095 9.59981 34.3737 10.6764L22.115 26.4719C21.9381 26.6995 21.6377 26.7919 21.3636 26.7023C21.0898 26.613 20.9015 26.361 20.8935 26.073L20.7866 22.3136C20.7722 21.3046 20.3386 20.3471 19.59 19.67C18.8512 19.015 17.8732 18.6966 16.8904 18.791C16.8791 18.7919 16.8666 18.7938 16.8547 18.7942L16.246 18.8168L13.0446 36.4599C12.5393 39.2449 13.5293 42.0009 15.6397 43.6365L23.2025 49.4976C26.4209 51.9918 31.2362 51.1914 33.9276 47.7254C35.3529 45.8901 36.4224 44.5138 37.284 43.4051C39.5871 40.4414 40.434 39.3512 42.9592 36.0773C43.79 35.0002 43.6502 33.5226 42.6659 32.7598Z" fill="white"/>
<path d="M22.51 26.7784L22.5098 26.7787C22.2038 27.1725 21.6834 27.3328 21.2083 27.1776M22.51 26.7784L21.2083 27.1776M22.51 26.7784L34.7687 10.983C34.7687 10.983 34.7687 10.983 34.7687 10.983C35.4589 10.094 36.6433 9.94054 37.3826 10.5135C38.1215 11.0861 38.2686 12.2717 37.5786 13.1621L30.1927 22.6923C30.1841 22.7034 30.1745 22.7152 30.1607 22.7322L30.1597 22.7335C30.1472 22.7489 30.1309 22.769 30.1144 22.7902C30.1063 22.8007 30.0995 22.8101 30.0944 22.8171L30.0831 22.8334L30.0811 22.8363L26.9254 26.9082C26.5253 27.4245 26.6194 28.167 27.1357 28.5671C27.6515 28.9669 28.3944 28.8733 28.7946 28.3568L32.0479 24.159C32.6947 23.3244 33.8134 23.2015 34.5451 23.7686L34.5999 23.8111C35.3457 24.3891 35.5006 25.5515 34.8163 26.4345L31.9271 30.1625C31.527 30.6788 31.6211 31.4213 32.1374 31.8214C32.6532 32.2212 33.3961 32.1275 33.7963 31.6111L36.0631 28.6862C36.7597 27.7874 37.9151 27.6244 38.652 28.1955C39.3828 28.7618 39.5146 29.9211 38.8174 30.8208L36.6787 33.5804C36.2789 34.0962 36.3725 34.8391 36.889 35.2393C37.4049 35.6392 38.148 35.545 38.5479 35.0291L39.7061 33.5345C40.3842 32.6596 41.5541 32.5307 42.3082 33.1151L42.3596 33.155C43.0989 33.7279 43.2475 34.8849 42.5633 35.7719C40.0386 39.0452 39.1921 40.1349 36.8892 43.0983C36.0276 44.207 34.958 45.5833 33.5327 47.4188C30.9879 50.6959 26.481 51.4058 23.5088 49.1024L15.946 43.2413C13.9949 41.7292 13.0618 39.1659 13.5366 36.5492L16.6662 19.3015L16.8724 19.2939C16.8725 19.2939 16.8726 19.2939 16.8727 19.2939C16.8966 19.293 16.9167 19.2909 16.9246 19.2901L16.9296 19.2896L16.9304 19.2895L16.9382 19.2887C17.782 19.2076 18.6217 19.4807 19.2564 20.0425C19.9011 20.6264 20.2742 21.4515 20.2867 22.3207L20.2866 22.3207L20.2868 22.3278L20.3937 26.0869M22.51 26.7784L20.3937 26.0869M21.2083 27.1776C20.7338 27.0226 20.4076 26.5861 20.3937 26.0869M21.2083 27.1776L20.3937 26.0869" stroke="black"/>
</g>
<defs>
<filter id="filter0_d" x="0" y="0" width="65.5548" height="67.0319" filterUnits="userSpaceOnUse" color-interpolation-filters="sRGB">
<feFlood flood-opacity="0" result="BackgroundImageFix"/>
<feColorMatrix in="SourceAlpha" type="matrix" values="0 0 0 0 0 0 0 0 0 0 0 0 0 0 0 0 0 0 127 0"/>
<feOffset dx="4" dy="5"/>
<feGaussianBlur stdDeviation="4"/>
<feColorMatrix type="matrix" values="0 0 0 0 0 0 0 0 0 0 0 0 0 0 0 0 0 0 0.25 0"/>
<feBlend mode="normal" in2="BackgroundImageFix" result="effect1_dropShadow"/>
<feBlend mode="normal" in="SourceGraphic" in2="effect1_dropShadow" result="shape"/>
</filter>
</defs>
</svg>
