<svg width="243" height="521" viewBox="0 0 243 521" fill="none" xmlns="http://www.w3.org/2000/svg">
<path fill-rule="evenodd" clip-rule="evenodd" d="M3.04462 16.5802C3.04462 7.4232 10.4689 0 19.6273 0H223.981C233.139 0 240.563 7.4232 240.563 16.5802V115.288H241.087C242.143 115.288 243 116.144 243 117.201V171.334C243 172.39 242.143 173.247 241.087 173.247H240.563V504.42C240.563 513.577 233.139 521 223.981 521H19.6273C10.4689 521 3.04462 513.577 3.04462 504.42V185.846H1.91338C0.856651 185.846 0 184.99 0 183.933L2.62226e-06 151.22C2.71155e-06 150.164 0.856655 149.307 1.91339 149.307H3.04462V139.857H1.91338C0.856651 139.857 0 139.001 0 137.944L2.62226e-06 105.231C2.71155e-06 104.175 0.856655 103.318 1.91339 103.318H3.04462V86.3083H1.91339C0.856652 86.3083 1.28889e-06 85.4518 1.37818e-06 84.3952L2.70533e-06 68.6918C2.79463e-06 67.6352 0.856655 66.7787 1.91339 66.7787H3.04462V16.5802Z" fill="#F0F0F0"/>
<path d="M10.0664 27.421C10.0664 18.8924 16.9812 11.9785 25.5113 11.9785H218.513C227.043 11.9785 233.958 18.8924 233.958 27.421V498.043C233.958 506.571 227.043 513.485 218.513 513.485H25.5113C16.9812 513.485 10.0664 506.571 10.0664 498.043V27.421Z" fill="white" stroke="#E9E9E9"/>
<path d="M59.9531 0H183.685V5.10159C183.685 15.6673 175.119 24.2326 164.552 24.2326H79.087C68.5196 24.2326 59.9531 15.6673 59.9531 5.10159V0Z" fill="#F0F0F0"/>
<path d="M106.512 14.5654C106.512 13.5089 107.368 12.6523 108.425 12.6523H135.85C136.907 12.6523 137.764 13.5089 137.764 14.5654C137.764 15.622 136.907 16.4785 135.85 16.4785H108.425C107.368 16.4785 106.512 15.622 106.512 14.5654Z" fill="#ABABAB"/>
<path d="M106.512 14.8853C106.512 14.0048 107.226 13.291 108.106 13.291H136.169C137.05 13.291 137.764 14.0048 137.764 14.8853C137.764 15.7657 137.05 16.4795 136.169 16.4795H108.106C107.226 16.4795 106.512 15.7657 106.512 14.8853Z" fill="#CDCDCD"/>
</svg>
