<svg width="29" height="9" viewBox="0 0 29 9" fill="none" xmlns="http://www.w3.org/2000/svg">
<path d="M12.336 8.65512H10.0547L11.4816 0.476562H13.7628L12.336 8.65512Z" fill="black"/>
<path d="M20.6051 0.678272C20.1551 0.51279 19.4414 0.330078 18.5589 0.330078C16.306 0.330078 14.7196 1.4437 14.7098 3.03583C14.6911 4.21051 15.8457 4.86295 16.7092 5.25463C17.5919 5.65486 17.8919 5.91609 17.8919 6.27284C17.8829 6.82075 17.1787 7.07331 16.5219 7.07331C15.611 7.07331 15.123 6.9431 14.3814 6.63827L14.081 6.50759L13.7617 8.3435C14.2968 8.56946 15.2826 8.76998 16.306 8.77877C18.6998 8.77877 20.2582 7.68239 20.2767 5.98571C20.2858 5.05469 19.6761 4.3413 18.3617 3.75836C17.5638 3.38414 17.0751 3.13182 17.0751 2.74893C17.0845 2.40085 17.4884 2.04433 18.3892 2.04433C19.1308 2.02687 19.6757 2.19212 20.0885 2.35749L20.2949 2.44433L20.6051 0.678272Z" fill="black"/>
<path d="M23.6351 5.75775C23.823 5.2879 24.5459 3.46945 24.5459 3.46945C24.5364 3.48692 24.7334 2.99093 24.8461 2.68645L25.0055 3.39117C25.0055 3.39117 25.4375 5.34884 25.5313 5.75775C25.1748 5.75775 24.0857 5.75775 23.6351 5.75775ZM26.4511 0.476562H24.6865C24.1423 0.476562 23.7289 0.624351 23.4941 1.15514L20.1055 8.65501H22.4992C22.4992 8.65501 22.8933 7.64558 22.978 7.42818C23.2406 7.42818 25.5692 7.42818 25.9071 7.42818C25.9726 7.71531 26.1793 8.65501 26.1793 8.65501H28.2916L26.4511 0.476562Z" fill="black"/>
<path d="M8.15197 0.476562L5.91778 6.05356L5.67364 4.92248C5.26059 3.61736 3.96516 2.19937 2.51953 1.49431L4.56597 8.64645H6.97843L10.5643 0.476562H8.15197Z" fill="black"/>
<path d="M3.84082 0.476562H0.170363L0.132812 0.641813C2.996 1.32051 4.89224 2.95647 5.67131 4.92282L4.8734 1.16405C4.74203 0.641697 4.33834 0.493793 3.84082 0.476562Z" fill="black"/>
</svg>
